<svg xmlns="http://www.w3.org/2000/svg" viewBox="0 0 480 260" width="100%" height="100%">
  <defs>
    <linearGradient id="glass-blue" x1="0" y1="0" x2="1" y2="1">
      <stop offset="0%" stop-color="#f0f7ff"/>
      <stop offset="100%" stop-color="#bfe0f8"/>
    </linearGradient>
    <linearGradient id="glass-door" x1="0" y1="0" x2="1" y2="1">
      <stop offset="0%" stop-color="#f6f8fa"/>
      <stop offset="100%" stop-color="#dbe3ea"/>
    </linearGradient>
    <linearGradient id="frame-dark" x1="0" y1="0" x2="0" y2="1">
      <stop offset="0%" stop-color="#36393e"/>
      <stop offset="100%" stop-color="#23272a"/>
    </linearGradient>
    <pattern id="mesh" width="8" height="8" patternUnits="userSpaceOnUse">
      <path d="M 0 0 L 8 8 M 8 0 L 0 8" fill="none" stroke="#60a5fa" stroke-width="0.5" stroke-opacity="0.35"/>
    </pattern>
    <pattern id="mesh-dark" width="6" height="6" patternUnits="userSpaceOnUse">
      <path d="M 0 3 L 6 3 M 3 0 L 3 6" fill="none" stroke="#3b82f6" stroke-width="0.5" stroke-opacity="0.4"/>
    </pattern>
    <filter id="shadow" x="-5%" y="-5%" width="110%" height="110%">
      <feDropShadow dx="0" dy="2" stdDeviation="3" flood-opacity="0.12"/>
    </filter>
  </defs>
  <rect x="2" y="2" width="476" height="256" rx="4" fill="#ffffff" stroke="#e2e8f0" stroke-width="1"/>
  
    <g filter="url(#shadow)">
      <rect x="20" y="20" width="440" height="220" fill="#2d3748" rx="2"/>
      <rect x="32" y="32" width="142" height="196" fill="#1a202c"/>
      <rect x="40" y="40" width="126" height="180" fill="url(#glass-blue)"/>
      <rect x="40" y="40" width="126" height="180" fill="url(#mesh)"/>
      <text x="103" y="135" font-family="sans-serif" font-size="11" font-weight="bold" fill="#0284c7" text-anchor="middle">NET SCREEN</text>
      <rect x="169" y="32" width="142" height="196" fill="#374151"/>
      <rect x="177" y="40" width="126" height="180" fill="url(#glass-blue)"/>
      <rect x="306" y="32" width="142" height="196" fill="#1a202c"/>
      <rect x="314" y="40" width="126" height="180" fill="url(#glass-blue)"/>
      <path d="M 355 130 L 395 130 M 380 120 L 395 130 L 380 140" fill="none" stroke="#0284c7" stroke-width="2.5" stroke-linecap="round"/>
    </g>
  
</svg>