<svg xmlns="http://www.w3.org/2000/svg" viewBox="0 0 380 260" width="100%" height="100%">
  <defs>
    <linearGradient id="glass-blue" x1="0" y1="0" x2="1" y2="1">
      <stop offset="0%" stop-color="#f0f7ff"/>
      <stop offset="100%" stop-color="#bfe0f8"/>
    </linearGradient>
    <linearGradient id="glass-door" x1="0" y1="0" x2="1" y2="1">
      <stop offset="0%" stop-color="#f6f8fa"/>
      <stop offset="100%" stop-color="#dbe3ea"/>
    </linearGradient>
    <linearGradient id="frame-dark" x1="0" y1="0" x2="0" y2="1">
      <stop offset="0%" stop-color="#36393e"/>
      <stop offset="100%" stop-color="#23272a"/>
    </linearGradient>
    <pattern id="mesh" width="8" height="8" patternUnits="userSpaceOnUse">
      <path d="M 0 0 L 8 8 M 8 0 L 0 8" fill="none" stroke="#60a5fa" stroke-width="0.5" stroke-opacity="0.35"/>
    </pattern>
    <pattern id="mesh-dark" width="6" height="6" patternUnits="userSpaceOnUse">
      <path d="M 0 3 L 6 3 M 3 0 L 3 6" fill="none" stroke="#3b82f6" stroke-width="0.5" stroke-opacity="0.4"/>
    </pattern>
    <filter id="shadow" x="-5%" y="-5%" width="110%" height="110%">
      <feDropShadow dx="0" dy="2" stdDeviation="3" flood-opacity="0.12"/>
    </filter>
  </defs>
  <rect x="2" y="2" width="376" height="256" rx="4" fill="#ffffff" stroke="#e2e8f0" stroke-width="1"/>
  
    <g filter="url(#shadow)">
      <rect x="30" y="25" width="320" height="210" fill="#0f172a" rx="2"/>
      
        <rect x="36" y="31" width="100" height="97" fill="#475569" stroke="#94a3b8" stroke-width="2" rx="1"/>
        <circle cx="45" cy="40" r="2" fill="#cbd5e1"/>
        <circle cx="127" cy="40" r="2" fill="#cbd5e1"/>
        <circle cx="45" cy="119" r="2" fill="#cbd5e1"/>
        <circle cx="127" cy="119" r="2" fill="#cbd5e1"/>
      
        <rect x="141" y="31" width="100" height="97" fill="#475569" stroke="#94a3b8" stroke-width="2" rx="1"/>
        <circle cx="150" cy="40" r="2" fill="#cbd5e1"/>
        <circle cx="232" cy="40" r="2" fill="#cbd5e1"/>
        <circle cx="150" cy="119" r="2" fill="#cbd5e1"/>
        <circle cx="232" cy="119" r="2" fill="#cbd5e1"/>
      
        <rect x="246" y="31" width="100" height="97" fill="#475569" stroke="#94a3b8" stroke-width="2" rx="1"/>
        <circle cx="255" cy="40" r="2" fill="#cbd5e1"/>
        <circle cx="337" cy="40" r="2" fill="#cbd5e1"/>
        <circle cx="255" cy="119" r="2" fill="#cbd5e1"/>
        <circle cx="337" cy="119" r="2" fill="#cbd5e1"/>
      
        <rect x="36" y="133" width="100" height="97" fill="#475569" stroke="#94a3b8" stroke-width="2" rx="1"/>
        <circle cx="45" cy="142" r="2" fill="#cbd5e1"/>
        <circle cx="127" cy="142" r="2" fill="#cbd5e1"/>
        <circle cx="45" cy="221" r="2" fill="#cbd5e1"/>
        <circle cx="127" cy="221" r="2" fill="#cbd5e1"/>
      
        <rect x="141" y="133" width="100" height="97" fill="#475569" stroke="#94a3b8" stroke-width="2" rx="1"/>
        <circle cx="150" cy="142" r="2" fill="#cbd5e1"/>
        <circle cx="232" cy="142" r="2" fill="#cbd5e1"/>
        <circle cx="150" cy="221" r="2" fill="#cbd5e1"/>
        <circle cx="232" cy="221" r="2" fill="#cbd5e1"/>
      
        <rect x="246" y="133" width="100" height="97" fill="#475569" stroke="#94a3b8" stroke-width="2" rx="1"/>
        <circle cx="255" cy="142" r="2" fill="#cbd5e1"/>
        <circle cx="337" cy="142" r="2" fill="#cbd5e1"/>
        <circle cx="255" cy="221" r="2" fill="#cbd5e1"/>
        <circle cx="337" cy="221" r="2" fill="#cbd5e1"/>
      
    </g>
  
</svg>