<svg xmlns="http://www.w3.org/2000/svg" viewBox="0 0 420 330" width="100%" height="100%">
  <defs>
    <linearGradient id="glass-blue" x1="0" y1="0" x2="1" y2="1">
      <stop offset="0%" stop-color="#f0f7ff"/>
      <stop offset="100%" stop-color="#bfe0f8"/>
    </linearGradient>
    <linearGradient id="glass-door" x1="0" y1="0" x2="1" y2="1">
      <stop offset="0%" stop-color="#f6f8fa"/>
      <stop offset="100%" stop-color="#dbe3ea"/>
    </linearGradient>
    <linearGradient id="frame-dark" x1="0" y1="0" x2="0" y2="1">
      <stop offset="0%" stop-color="#36393e"/>
      <stop offset="100%" stop-color="#23272a"/>
    </linearGradient>
    <pattern id="mesh" width="8" height="8" patternUnits="userSpaceOnUse">
      <path d="M 0 0 L 8 8 M 8 0 L 0 8" fill="none" stroke="#60a5fa" stroke-width="0.5" stroke-opacity="0.35"/>
    </pattern>
    <pattern id="mesh-dark" width="6" height="6" patternUnits="userSpaceOnUse">
      <path d="M 0 3 L 6 3 M 3 0 L 3 6" fill="none" stroke="#3b82f6" stroke-width="0.5" stroke-opacity="0.4"/>
    </pattern>
    <filter id="shadow" x="-5%" y="-5%" width="110%" height="110%">
      <feDropShadow dx="0" dy="2" stdDeviation="3" flood-opacity="0.12"/>
    </filter>
  </defs>
  <rect x="2" y="2" width="416" height="326" rx="4" fill="#ffffff" stroke="#e2e8f0" stroke-width="1"/>
  
    <g filter="url(#shadow)">
      <!-- Heavy Duty Frame -->
      <rect x="20" y="15" width="380" height="295" fill="#1a202c" rx="2"/>
      <!-- Left Leaf (10mm Frameless/Patch) -->
      <rect x="32" y="27" width="173" height="273" fill="none" stroke="#334155" stroke-width="3"/>
      <rect x="35" y="30" width="167" height="267" fill="url(#glass-door)"/>
      <!-- Top/Bottom Patch fittings -->
      <rect x="35" y="30" width="32" height="14" fill="#94a3b8" rx="2"/>
      <rect x="35" y="283" width="32" height="14" fill="#94a3b8" rx="2"/>
      <!-- Stainless Steel Push/Pull Bar -->
      <rect x="180" y="110" width="8" height="120" rx="4" fill="#e2e8f0" stroke="#64748b" stroke-width="1.5"/>
      <circle cx="184" cy="120" r="2.5" fill="#334155"/>
      <circle cx="184" cy="220" r="2.5" fill="#334155"/>
      
      <!-- Right Leaf -->
      <rect x="215" y="27" width="173" height="273" fill="none" stroke="#334155" stroke-width="3"/>
      <rect x="218" y="30" width="167" height="267" fill="url(#glass-door)"/>
      <!-- Top/Bottom Patch fittings -->
      <rect x="356" y="30" width="32" height="14" fill="#94a3b8" rx="2"/>
      <rect x="356" y="283" width="32" height="14" fill="#94a3b8" rx="2"/>
      <!-- Stainless Steel Push/Pull Bar -->
      <rect x="232" y="110" width="8" height="120" rx="4" fill="#e2e8f0" stroke="#64748b" stroke-width="1.5"/>
      <circle cx="236" cy="120" r="2.5" fill="#334155"/>
      <circle cx="236" cy="220" r="2.5" fill="#334155"/>

      <!-- Floor Closers -->
      <rect x="35" y="300" width="25" height="6" fill="#0f172a"/>
      <rect x="360" y="300" width="25" height="6" fill="#0f172a"/>
    </g>
  
</svg>