<svg xmlns="http://www.w3.org/2000/svg" viewBox="0 0 440 260" width="100%" height="100%">
  <defs>
    <linearGradient id="glass-blue" x1="0" y1="0" x2="1" y2="1">
      <stop offset="0%" stop-color="#f0f7ff"/>
      <stop offset="100%" stop-color="#bfe0f8"/>
    </linearGradient>
    <linearGradient id="glass-door" x1="0" y1="0" x2="1" y2="1">
      <stop offset="0%" stop-color="#f6f8fa"/>
      <stop offset="100%" stop-color="#dbe3ea"/>
    </linearGradient>
    <linearGradient id="frame-dark" x1="0" y1="0" x2="0" y2="1">
      <stop offset="0%" stop-color="#36393e"/>
      <stop offset="100%" stop-color="#23272a"/>
    </linearGradient>
    <pattern id="mesh" width="8" height="8" patternUnits="userSpaceOnUse">
      <path d="M 0 0 L 8 8 M 8 0 L 0 8" fill="none" stroke="#60a5fa" stroke-width="0.5" stroke-opacity="0.35"/>
    </pattern>
    <pattern id="mesh-dark" width="6" height="6" patternUnits="userSpaceOnUse">
      <path d="M 0 3 L 6 3 M 3 0 L 3 6" fill="none" stroke="#3b82f6" stroke-width="0.5" stroke-opacity="0.4"/>
    </pattern>
    <filter id="shadow" x="-5%" y="-5%" width="110%" height="110%">
      <feDropShadow dx="0" dy="2" stdDeviation="3" flood-opacity="0.12"/>
    </filter>
  </defs>
  <rect x="2" y="2" width="436" height="256" rx="4" fill="#ffffff" stroke="#e2e8f0" stroke-width="1"/>
  
    <g filter="url(#shadow)">
      <rect x="20" y="20" width="400" height="220" fill="#2d3748" rx="2"/>
      
        <rect x="32" y="32" width="90" height="196" fill="#1a202c" rx="1"/>
        <rect x="38" y="38" width="78" height="184" fill="url(#glass-blue)"/>
        <path d="M 38 38 L 70 130 L 38 222" fill="none" stroke="#0284c7" stroke-width="2" stroke-dasharray="4 4"/>
      
        <rect x="127" y="32" width="90" height="196" fill="#1a202c" rx="1"/>
        <rect x="133" y="38" width="78" height="184" fill="url(#glass-blue)"/>
        <path d="M 133 38 L 165 130 L 133 222" fill="none" stroke="#0284c7" stroke-width="2" stroke-dasharray="4 4"/>
      
        <rect x="222" y="32" width="90" height="196" fill="#1a202c" rx="1"/>
        <rect x="228" y="38" width="78" height="184" fill="url(#glass-blue)"/>
        <path d="M 228 38 L 260 130 L 228 222" fill="none" stroke="#0284c7" stroke-width="2" stroke-dasharray="4 4"/>
      
        <rect x="317" y="32" width="90" height="196" fill="#1a202c" rx="1"/>
        <rect x="323" y="38" width="78" height="184" fill="url(#glass-blue)"/>
        <path d="M 323 38 L 355 130 L 323 222" fill="none" stroke="#0284c7" stroke-width="2" stroke-dasharray="4 4"/>
      
    </g>
  
</svg>