<svg xmlns="http://www.w3.org/2000/svg" viewBox="0 0 320 320" width="100%" height="100%">
  <defs>
    <linearGradient id="glass-blue" x1="0" y1="0" x2="1" y2="1">
      <stop offset="0%" stop-color="#f0f7ff"/>
      <stop offset="100%" stop-color="#bfe0f8"/>
    </linearGradient>
    <linearGradient id="glass-door" x1="0" y1="0" x2="1" y2="1">
      <stop offset="0%" stop-color="#f6f8fa"/>
      <stop offset="100%" stop-color="#dbe3ea"/>
    </linearGradient>
    <linearGradient id="frame-dark" x1="0" y1="0" x2="0" y2="1">
      <stop offset="0%" stop-color="#36393e"/>
      <stop offset="100%" stop-color="#23272a"/>
    </linearGradient>
    <pattern id="mesh" width="8" height="8" patternUnits="userSpaceOnUse">
      <path d="M 0 0 L 8 8 M 8 0 L 0 8" fill="none" stroke="#60a5fa" stroke-width="0.5" stroke-opacity="0.35"/>
    </pattern>
    <pattern id="mesh-dark" width="6" height="6" patternUnits="userSpaceOnUse">
      <path d="M 0 3 L 6 3 M 3 0 L 3 6" fill="none" stroke="#3b82f6" stroke-width="0.5" stroke-opacity="0.4"/>
    </pattern>
    <filter id="shadow" x="-5%" y="-5%" width="110%" height="110%">
      <feDropShadow dx="0" dy="2" stdDeviation="3" flood-opacity="0.12"/>
    </filter>
  </defs>
  <rect x="2" y="2" width="316" height="316" rx="4" fill="#ffffff" stroke="#e2e8f0" stroke-width="1"/>
  
    <g filter="url(#shadow)">
      <rect x="35" y="20" width="250" height="280" fill="#2d3748" rx="2"/>
      <rect x="47" y="32" width="226" height="256" fill="#f8fafc"/>
      <!-- Louver blades with tilted glass effect -->
      
        <g transform="translate(52, 40)">
          <rect x="0" y="0" width="216" height="28" fill="#e0f2fe" stroke="#0284c7" stroke-width="1.5" rx="1"/>
          <line x1="0" y1="28" x2="216" y2="28" stroke="#334155" stroke-width="2"/>
          <circle cx="10" cy="14" r="3" fill="#64748b"/>
          <circle cx="206" cy="14" r="3" fill="#64748b"/>
        </g>
      
        <g transform="translate(52, 75)">
          <rect x="0" y="0" width="216" height="28" fill="#e0f2fe" stroke="#0284c7" stroke-width="1.5" rx="1"/>
          <line x1="0" y1="28" x2="216" y2="28" stroke="#334155" stroke-width="2"/>
          <circle cx="10" cy="14" r="3" fill="#64748b"/>
          <circle cx="206" cy="14" r="3" fill="#64748b"/>
        </g>
      
        <g transform="translate(52, 110)">
          <rect x="0" y="0" width="216" height="28" fill="#e0f2fe" stroke="#0284c7" stroke-width="1.5" rx="1"/>
          <line x1="0" y1="28" x2="216" y2="28" stroke="#334155" stroke-width="2"/>
          <circle cx="10" cy="14" r="3" fill="#64748b"/>
          <circle cx="206" cy="14" r="3" fill="#64748b"/>
        </g>
      
        <g transform="translate(52, 145)">
          <rect x="0" y="0" width="216" height="28" fill="#e0f2fe" stroke="#0284c7" stroke-width="1.5" rx="1"/>
          <line x1="0" y1="28" x2="216" y2="28" stroke="#334155" stroke-width="2"/>
          <circle cx="10" cy="14" r="3" fill="#64748b"/>
          <circle cx="206" cy="14" r="3" fill="#64748b"/>
        </g>
      
        <g transform="translate(52, 180)">
          <rect x="0" y="0" width="216" height="28" fill="#e0f2fe" stroke="#0284c7" stroke-width="1.5" rx="1"/>
          <line x1="0" y1="28" x2="216" y2="28" stroke="#334155" stroke-width="2"/>
          <circle cx="10" cy="14" r="3" fill="#64748b"/>
          <circle cx="206" cy="14" r="3" fill="#64748b"/>
        </g>
      
        <g transform="translate(52, 215)">
          <rect x="0" y="0" width="216" height="28" fill="#e0f2fe" stroke="#0284c7" stroke-width="1.5" rx="1"/>
          <line x1="0" y1="28" x2="216" y2="28" stroke="#334155" stroke-width="2"/>
          <circle cx="10" cy="14" r="3" fill="#64748b"/>
          <circle cx="206" cy="14" r="3" fill="#64748b"/>
        </g>
      
        <g transform="translate(52, 250)">
          <rect x="0" y="0" width="216" height="28" fill="#e0f2fe" stroke="#0284c7" stroke-width="1.5" rx="1"/>
          <line x1="0" y1="28" x2="216" y2="28" stroke="#334155" stroke-width="2"/>
          <circle cx="10" cy="14" r="3" fill="#64748b"/>
          <circle cx="206" cy="14" r="3" fill="#64748b"/>
        </g>
      
      <rect x="264" y="130" width="6" height="45" rx="2" fill="#0f172a"/>
    </g>
  
</svg>