<svg xmlns="http://www.w3.org/2000/svg" viewBox="0 0 400 280" width="100%" height="100%">
  <defs>
    <linearGradient id="glass-blue" x1="0" y1="0" x2="1" y2="1">
      <stop offset="0%" stop-color="#f0f7ff"/>
      <stop offset="100%" stop-color="#bfe0f8"/>
    </linearGradient>
    <linearGradient id="glass-door" x1="0" y1="0" x2="1" y2="1">
      <stop offset="0%" stop-color="#f6f8fa"/>
      <stop offset="100%" stop-color="#dbe3ea"/>
    </linearGradient>
    <linearGradient id="frame-dark" x1="0" y1="0" x2="0" y2="1">
      <stop offset="0%" stop-color="#36393e"/>
      <stop offset="100%" stop-color="#23272a"/>
    </linearGradient>
    <pattern id="mesh" width="8" height="8" patternUnits="userSpaceOnUse">
      <path d="M 0 0 L 8 8 M 8 0 L 0 8" fill="none" stroke="#60a5fa" stroke-width="0.5" stroke-opacity="0.35"/>
    </pattern>
    <pattern id="mesh-dark" width="6" height="6" patternUnits="userSpaceOnUse">
      <path d="M 0 3 L 6 3 M 3 0 L 3 6" fill="none" stroke="#3b82f6" stroke-width="0.5" stroke-opacity="0.4"/>
    </pattern>
    <filter id="shadow" x="-5%" y="-5%" width="110%" height="110%">
      <feDropShadow dx="0" dy="2" stdDeviation="3" flood-opacity="0.12"/>
    </filter>
  </defs>
  <rect x="2" y="2" width="396" height="276" rx="4" fill="#ffffff" stroke="#e2e8f0" stroke-width="1"/>
  
    <g filter="url(#shadow)">
      <polygon points="30,240 30,120 180,60 370,100 370,240" fill="#2d3748"/>
      <!-- Roof Glass Panels -->
      <polygon points="40,115 175,68 175,120 40,135" fill="url(#glass-blue)"/>
      <polygon points="185,68 360,105 360,125 185,120" fill="url(#glass-blue)"/>
      <!-- Front Glass Windows -->
      <rect x="40" y="145" width="95" height="85" fill="url(#glass-blue)"/>
      <rect x="145" y="145" width="105" height="85" fill="url(#glass-blue)"/>
      <rect x="260" y="145" width="100" height="85" fill="url(#glass-blue)"/>
    </g>
  
</svg>